  0
SECTION
  2
HEADER
  9
$ACADVER
  1
AC1009
  9
$INSBASE
 10
0.0
 20
0.0
 30
0.0
  9
$EXTMIN
 10
-203.93299999999999
 20
-109.761
 30
0.0
  9
$EXTMAX
 10
398.00035539286921
 20
577.30042081422198
 30
0.0
  9
$LIMMIN
 10
0.0
 20
0.0
  9
$LIMMAX
 10
420.0
 20
297.0
  9
$ORTHOMODE
 70
     0
  9
$REGENMODE
 70
     1
  9
$FILLMODE
 70
     1
  9
$QTEXTMODE
 70
     0
  9
$MIRRTEXT
 70
     0
  9
$DRAGMODE
 70
     2
  9
$LTSCALE
 40
1.0
  9
$OSMODE
 70
    37
  9
$ATTMODE
 70
     1
  9
$TEXTSIZE
 40
2.5
  9
$TRACEWID
 40
1.0
  9
$TEXTSTYLE
  7
STANDARD
  9
$CLAYER
  8
0
  9
$CELTYPE
  6
BYLAYER
  9
$CECOLOR
 62
   256
  9
$DIMSCALE
 40
1.0
  9
$DIMASZ
 40
2.5
  9
$DIMEXO
 40
0.625
  9
$DIMDLI
 40
3.75
  9
$DIMRND
 40
0.0
  9
$DIMDLE
 40
0.0
  9
$DIMEXE
 40
1.25
  9
$DIMTP
 40
0.0
  9
$DIMTM
 40
0.0
  9
$DIMTXT
 40
2.5
  9
$DIMCEN
 40
2.5
  9
$DIMTSZ
 40
0.0
  9
$DIMTOL
 70
     0
  9
$DIMLIM
 70
     0
  9
$DIMTIH
 70
     0
  9
$DIMTOH
 70
     0
  9
$DIMSE1
 70
     0
  9
$DIMSE2
 70
     0
  9
$DIMTAD
 70
     1
  9
$DIMZIN
 70
     8
  9
$DIMBLK
  1

  9
$DIMASO
 70
     1
  9
$DIMSHO
 70
     1
  9
$DIMPOST
  1

  9
$DIMAPOST
  1

  9
$DIMALT
 70
     0
  9
$DIMALTD
 70
     3
  9
$DIMALTF
 40
0.03937007874016
  9
$DIMLFAC
 40
1.0
  9
$DIMTOFL
 70
     1
  9
$DIMTVP
 40
0.0
  9
$DIMTIX
 70
     0
  9
$DIMSOXD
 70
     0
  9
$DIMSAH
 70
     0
  9
$DIMBLK1
  1

  9
$DIMBLK2
  1

  9
$DIMSTYLE
  2
ISO-25
  9
$DIMCLRD
 70
     0
  9
$DIMCLRE
 70
     0
  9
$DIMCLRT
 70
     0
  9
$DIMTFAC
 40
1.0
  9
$DIMGAP
 40
0.625
  9
$LUNITS
 70
     2
  9
$LUPREC
 70
     4
  9
$SKETCHINC
 40
1.0
  9
$FILLETRAD
 40
0.0
  9
$AUNITS
 70
     0
  9
$AUPREC
 70
     0
  9
$MENU
  1
.
  9
$ELEVATION
 40
0.0
  9
$PELEVATION
 40
0.0
  9
$THICKNESS
 40
0.0
  9
$LIMCHECK
 70
     0
  9
$BLIPMODE
 70
     0
  9
$CHAMFERA
 40
0.0
  9
$CHAMFERB
 40
0.0
  9
$SKPOLY
 70
     0
  9
$TDCREATE
 40
2455826.533818935
  9
$TDUPDATE
 40
2455862.6311589121
  9
$TDINDWG
 40
0.0249150116
  9
$TDUSRTIMER
 40
0.0249120949
  9
$USRTIMER
 70
     1
  9
$ANGBASE
 50
0.0
  9
$ANGDIR
 70
     0
  9
$PDMODE
 70
     0
  9
$PDSIZE
 40
0.0
  9
$PLINEWID
 40
0.0
  9
$COORDS
 70
     1
  9
$SPLFRAME
 70
     0
  9
$SPLINETYPE
 70
     6
  9
$SPLINESEGS
 70
     8
  9
$ATTDIA
 70
     0
  9
$ATTREQ
 70
     1
  9
$HANDLING
 70
     1
  9
$HANDSEED
  5
5D5
  9
$SURFTAB1
 70
     6
  9
$SURFTAB2
 70
     6
  9
$SURFTYPE
 70
     6
  9
$SURFU
 70
     6
  9
$SURFV
 70
     6
  9
$UCSNAME
  2

  9
$UCSORG
 10
0.0
 20
0.0
 30
0.0
  9
$UCSXDIR
 10
1.0
 20
0.0
 30
0.0
  9
$UCSYDIR
 10
0.0
 20
1.0
 30
0.0
  9
$PUCSNAME
  2

  9
$PUCSORG
 10
0.0
 20
0.0
 30
0.0
  9
$PUCSXDIR
 10
1.0
 20
0.0
 30
0.0
  9
$PUCSYDIR
 10
0.0
 20
1.0
 30
0.0
  9
$USERI1
 70
     0
  9
$USERI2
 70
     0
  9
$USERI3
 70
     0
  9
$USERI4
 70
     0
  9
$USERI5
 70
     0
  9
$USERR1
 40
0.0
  9
$USERR2
 40
0.0
  9
$USERR3
 40
0.0
  9
$USERR4
 40
0.0
  9
$USERR5
 40
0.0
  9
$WORLDVIEW
 70
     1
  9
$SHADEDGE
 70
     3
  9
$SHADEDIF
 70
    70
  9
$TILEMODE
 70
     1
  9
$MAXACTVP
 70
    64
  9
$PLIMCHECK
 70
     0
  9
$PEXTMIN
 10
0.0
 20
0.0
 30
0.0
  9
$PEXTMAX
 10
0.0
 20
0.0
 30
0.0
  9
$PLIMMIN
 10
0.0
 20
0.0
  9
$PLIMMAX
 10
12.0
 20
9.0
  9
$UNITMODE
 70
     0
  9
$VISRETAIN
 70
     1
  9
$PLINEGEN
 70
     0
  9
$PSLTSCALE
 70
     1
  0
ENDSEC
  0
SECTION
  2
TABLES
  0
TABLE
  2
VPORT
 70
     1
  0
VPORT
  2
*ACTIVE
 70
     0
 10
0.0
 20
0.0
 11
1.0
 21
1.0
 12
44.324037371932143
 22
288.16733534172113
 13
0.0
 23
0.0
 14
10.0
 24
10.0
 15
10.0
 25
10.0
 16
0.0
 26
0.0
 36
1.0
 17
0.0
 27
0.0
 37
0.0
 40
650.42067020640252
 41
1.706827309236947
 42
50.0
 43
0.0
 44
0.0
 50
0.0
 51
0.0
 71
     0
 72
  1000
 73
     1
 74
     3
 75
     0
 76
     0
 77
     0
 78
     0
  0
ENDTAB
  0
TABLE
  2
LTYPE
 70
     1
  0
LTYPE
  2
CONTINUOUS
 70
     0
  3
Solid line
 72
    65
 73
     0
 40
0.0
  0
ENDTAB
  0
TABLE
  2
LAYER
 70
     4
  0
LAYER
  2
0
 70
     0
 62
     7
  6
CONTINUOUS
  0
LAYER
  2
DEFPOINTS
 70
     0
 62
     7
  6
CONTINUOUS
  0
LAYER
  2
0___1
 70
     0
 62
     7
  6
CONTINUOUS
  0
LAYER
  2
0___0_25
 70
     0
 62
     7
  6
CONTINUOUS
  0
ENDTAB
  0
TABLE
  2
STYLE
 70
     2
  0
STYLE
  2
STANDARD
 70
     0
 40
0.0
 41
1.0
 50
0.0
 71
     0
 42
2.5
  3
txt
  4

  0
STYLE
  2
ANNOTATIVE
 70
     0
 40
0.0
 41
1.0
 50
0.0
 71
     0
 42
2.5
  3
txt
  4

  0
ENDTAB
  0
TABLE
  2
VIEW
 70
     0
  0
ENDTAB
  0
TABLE
  2
UCS
 70
     0
  0
ENDTAB
  0
TABLE
  2
APPID
 70
    10
  0
APPID
  2
ACAD
 70
     0
  0
APPID
  2
ACADANNOTATIVE
 70
     0
  0
APPID
  2
ACAD_MLEADERVER
 70
     0
  0
APPID
  2
ACAD_PSEXT
 70
     0
  0
APPID
  2
ACADANNOPO
 70
     0
  0
APPID
  2
ACAD_DSTYLE_DIMJAG
 70
     0
  0
APPID
  2
ACAD_DSTYLE_DIMTALN
 70
     0
  0
APPID
  2
ACAD_EXEMPT_FROM_CAD_STANDARDS
 70
     0
  0
APPID
  2
ACADANNOTATIVEDECOMPOSITION
 70
     0
  0
APPID
  2
ACAD_DSTYLE_DIMRADIAL_EXTENSION
 70
     0
  0
ENDTAB
  0
TABLE
  2
DIMSTYLE
 70
     3
  0
DIMSTYLE
  2
STANDARD
 70
     0
  3

  4

  5

  6

  7

 40
1.0
 41
0.18
 42
0.0625
 43
0.38
 44
0.18
 45
0.0
 46
0.0
 47
0.0
 48
0.0
140
0.18
141
0.09
142
0.0
143
25.399999999999999
144
1.0
145
0.0
146
1.0
147
0.09
 71
     0
 72
     0
 73
     1
 74
     1
 75
     0
 76
     0
 77
     0
 78
     0
170
     0
171
     2
172
     0
173
     0
174
     0
175
     0
176
     0
177
     0
178
     0
  0
DIMSTYLE
  2
ANNOTATIVE
 70
     0
  3

  4

  5

  6

  7

 40
0.0
 41
2.5
 42
0.625
 43
3.75
 44
1.25
 45
0.0
 46
0.0
 47
0.0
 48
0.0
140
2.5
141
2.5
142
0.0
143
0.03937007874016
144
1.0
145
0.0
146
1.0
147
0.625
 71
     0
 72
     0
 73
     0
 74
     0
 75
     0
 76
     0
 77
     1
 78
     8
170
     0
171
     3
172
     1
173
     0
174
     0
175
     0
176
     0
177
     0
178
     0
  0
DIMSTYLE
  2
ISO-25
 70
     0
  3

  4

  5

  6

  7

 40
1.0
 41
2.5
 42
0.625
 43
3.75
 44
1.25
 45
0.0
 46
0.0
 47
0.0
 48
0.0
140
2.5
141
2.5
142
0.0
143
0.03937007874016
144
1.0
145
0.0
146
1.0
147
0.625
 71
     0
 72
     0
 73
     0
 74
     0
 75
     0
 76
     0
 77
     1
 78
     8
170
     0
171
     3
172
     1
173
     0
174
     0
175
     0
176
     0
177
     0
178
     0
  0
ENDTAB
  0
ENDSEC
  0
SECTION
  2
BLOCKS
  0
BLOCK
  8
0
  2
$MODEL_SPACE
 70
     0
 10
0.0
 20
0.0
 30
0.0
  3
$MODEL_SPACE
  1

  0
ENDBLK
  5
495
  8
0
  0
BLOCK
 67
     1
  8
0
  2
$PAPER_SPACE
 70
     0
 10
0.0
 20
0.0
 30
0.0
  3
$PAPER_SPACE
  1

  0
ENDBLK
  5
491
 67
     1
  8
0
  0
BLOCK
  8
0
  2
*D2
 70
     1
 10
0.0
 20
0.0
 30
0.0
  3
*D2
  1

  0
LINE
  5
3E7
  8
0
 62
     0
 10
-0.625
 20
500.0
 30
0.0
 11
-142.0577503639233
 21
500.0
 31
0.0
  0
LINE
  5
3E8
  8
0
 62
     0
 10
-0.625000000000092
 20
0.0000000000000002
 30
0.0
 11
-142.05775036392339
 21
0.0000000000000402
 31
0.0
  0
LINE
  5
3E9
  8
0
 62
     0
 10
-140.8077503639233
 20
497.5
 30
0.0
 11
-140.80775036392339
 21
2.5000000000000391
 31
0.0
  0
SOLID
  5
3EA
  8
0
 62
     0
 10
-141.2244170305899
 20
497.5
 30
0.0
 11
-140.39108369725659
 21
497.5
 31
0.0
 12
-140.8077503639233
 22
500.0
 32
0.0
 13
-140.8077503639233
 23
500.0
 33
0.0
  0
SOLID
  5
3EB
  8
0
 62
     0
 10
-141.22441703058999
 20
2.5000000000000391
 30
0.0
 11
-140.3910836972567
 21
2.5000000000000391
 31
0.0
 12
-140.80775036392339
 22
0.0000000000000399
 32
0.0
 13
-140.80775036392339
 23
0.0000000000000399
 33
0.0
  0
TEXT
  5
41D
  8
0
 62
     0
 10
-203.93299999999999
 20
205.75
 30
0.0
 40
25.0
  1
500
  0
POINT
  5
3ED
  8
DEFPOINTS
 62
     0
 10
0.0
 20
500.0
 30
0.0
  0
POINT
  5
3EE
  8
DEFPOINTS
 62
     0
 10
-0.0000000000000918
 20
0.0
 30
0.0
  0
POINT
  5
3EF
  8
DEFPOINTS
 62
     0
 10
-140.80775036392339
 20
0.0000000000000399
 30
0.0
  0
ENDBLK
  5
2DD
  8
0
  0
BLOCK
  8
0
  2
*D3
 70
     1
 10
0.0
 20
0.0
 30
0.0
  3
*D3
  1

  0
LINE
  5
2EB
  8
0
 62
     0
 10
-0.625
 20
500.625
 30
0.0
 11
-0.6249999999999968
 21
552.92542081422152
 31
0.0
  0
LINE
  5
2EC
  8
0
 62
     0
 10
300.0
 20
500.625
 30
0.0
 11
300.0
 21
552.92542081422152
 31
0.0
  0
LINE
  5
2ED
  8
0
 62
     0
 10
1.8750000000000031
 20
551.67542081422152
 30
0.0
 11
297.5
 21
551.67542081422152
 31
0.0
  0
SOLID
  5
2EE
  8
0
 62
     0
 10
1.8750000000000031
 20
552.09208748088815
 30
0.0
 11
1.8750000000000031
 21
551.25875414755467
 31
0.0
 12
-0.6249999999999968
 22
551.67542081422152
 32
0.0
 13
-0.6249999999999968
 23
551.67542081422152
 33
0.0
  0
SOLID
  5
2EF
  8
0
 62
     0
 10
297.5
 20
552.09208748088815
 30
0.0
 11
297.5
 21
551.25875414755467
 31
0.0
 12
300.0
 22
551.67542081422152
 32
0.0
 13
300.0
 23
551.67542081422152
 33
0.0
  0
INSERT
  5
2F0
  8
0
  2
*U4
 10
0.0
 20
0.0
 30
0.0
  0
POINT
  5
2F1
  8
DEFPOINTS
 62
     0
 10
-0.625
 20
500.0
 30
0.0
  0
POINT
  5
2F2
  8
DEFPOINTS
 62
     0
 10
300.0
 20
500.0
 30
0.0
  0
POINT
  5
2F3
  8
DEFPOINTS
 62
     0
 10
300.0
 20
551.67542081422152
 30
0.0
  0
ENDBLK
  5
2EA
  8
0
  0
BLOCK
  8
0
  2
*U4
 70
     1
 10
0.0
 20
0.0
 30
0.0
  3
*U4
  1

  0
TEXT
  5
3F1
  8
0
 62
     0
 10
142.6041666666666
 20
552.30042081422152
 30
0.0
 40
2.5
  1
300.625
  0
ENDBLK
  5
3F3
  8
0
  0
BLOCK
  8
0
  2
*D5
 70
     1
 10
0.0
 20
0.0
 30
0.0
  3
*D5
  1

  0
LINE
  5
304
  8
0
 62
     0
 10
-0.625
 20
500.0625
 30
0.0
 11
-0.6249999999999968
 21
551.85542081422125
 31
0.0
  0
LINE
  5
305
  8
0
 62
     0
 10
300.0
 20
500.0625
 30
0.0
 11
300.0
 21
551.85542081422125
 31
0.0
  0
LINE
  5
306
  8
0
 62
     0
 10
-0.4449999999999969
 20
551.67542081422152
 30
0.0
 11
149.01249999999999
 21
551.67542081422152
 31
0.0
  0
LINE
  5
307
  8
0
 62
     0
 10
299.81999999999999
 20
551.67542081422152
 30
0.0
 11
150.36250000000001
 21
551.67542081422152
 31
0.0
  0
SOLID
  5
308
  8
0
 62
     0
 10
-0.4449999999999969
 20
551.7054208142215
 30
0.0
 11
-0.4449999999999969
 21
551.64542081422155
 31
0.0
 12
-0.6249999999999968
 22
551.67542081422152
 32
0.0
 13
-0.6249999999999968
 23
551.67542081422152
 33
0.0
  0
SOLID
  5
309
  8
0
 62
     0
 10
299.81999999999999
 20
551.7054208142215
 30
0.0
 11
299.81999999999999
 21
551.64542081422155
 31
0.0
 12
300.0
 22
551.67542081422152
 32
0.0
 13
300.0
 23
551.67542081422152
 33
0.0
  0
INSERT
  5
30A
  8
0
  2
*U6
 10
0.0
 20
0.0
 30
0.0
  0
POINT
  5
30B
  8
DEFPOINTS
 62
     0
 10
-0.625
 20
500.0
 30
0.0
  0
POINT
  5
30C
  8
DEFPOINTS
 62
     0
 10
300.0
 20
500.0
 30
0.0
  0
POINT
  5
30D
  8
DEFPOINTS
 62
     0
 10
300.0
 20
551.67542081422152
 30
0.0
  0
ENDBLK
  5
2F6
  8
0
  0
BLOCK
  8
0
  2
*U6
 70
     1
 10
0.0
 20
0.0
 30
0.0
  3
*U6
  1

  0
TEXT
  5
3F5
  8
0
 62
     0
 10
149.10249999999999
 20
551.58542081422161
 30
0.0
 40
0.18
  1
300.6250
  0
ENDBLK
  5
3F7
  8
0
  0
BLOCK
  8
0
  2
*D7
 70
     1
 10
0.0
 20
0.0
 30
0.0
  3
*D7
  1

  0
LINE
  5
33A
  8
0
 62
     0
 10
-0.625
 20
500.0625
 30
0.0
 11
-0.6249999999999968
 21
551.85542081422125
 31
0.0
  0
LINE
  5
33B
  8
0
 62
     0
 10
300.0
 20
500.0625
 30
0.0
 11
300.0
 21
551.85542081422125
 31
0.0
  0
LINE
  5
33C
  8
0
 62
     0
 10
-0.4449999999999969
 20
551.67542081422152
 30
0.0
 11
149.01249999999999
 21
551.67542081422152
 31
0.0
  0
LINE
  5
33D
  8
0
 62
     0
 10
299.81999999999999
 20
551.67542081422152
 30
0.0
 11
150.36250000000001
 21
551.67542081422152
 31
0.0
  0
SOLID
  5
33E
  8
0
 62
     0
 10
-0.4449999999999969
 20
551.7054208142215
 30
0.0
 11
-0.4449999999999969
 21
551.64542081422155
 31
0.0
 12
-0.6249999999999968
 22
551.67542081422152
 32
0.0
 13
-0.6249999999999968
 23
551.67542081422152
 33
0.0
  0
SOLID
  5
33F
  8
0
 62
     0
 10
299.81999999999999
 20
551.7054208142215
 30
0.0
 11
299.81999999999999
 21
551.64542081422155
 31
0.0
 12
300.0
 22
551.67542081422152
 32
0.0
 13
300.0
 23
551.67542081422152
 33
0.0
  0
INSERT
  5
340
  8
0
  2
*U8
 10
0.0
 20
0.0
 30
0.0
  0
POINT
  5
341
  8
DEFPOINTS
 62
     0
 10
-0.625
 20
500.0
 30
0.0
  0
POINT
  5
342
  8
DEFPOINTS
 62
     0
 10
300.0
 20
500.0
 30
0.0
  0
POINT
  5
343
  8
DEFPOINTS
 62
     0
 10
300.0
 20
551.67542081422152
 30
0.0
  0
ENDBLK
  5
310
  8
0
  0
BLOCK
  8
0
  2
*U8
 70
     1
 10
0.0
 20
0.0
 30
0.0
  3
*U8
  1

  0
TEXT
  5
3FD
  8
0
 62
     0
 10
149.10249999999999
 20
551.58542081422161
 30
0.0
 40
0.18
  1
300.6250
  0
ENDBLK
  5
3FF
  8
0
  0
BLOCK
  8
0
  2
*D9
 70
     1
 10
0.0
 20
0.0
 30
0.0
  3
*D9
  1

  0
LINE
  5
327
  8
0
 62
     0
 10
-0.625
 20
502.5
 30
0.0
 11
-0.6249999999999966
 21
556.67542081422141
 31
0.0
  0
LINE
  5
328
  8
0
 62
     0
 10
300.0
 20
502.5
 30
0.0
 11
300.0
 21
556.67542081422141
 31
0.0
  0
LINE
  5
329
  8
0
 62
     0
 10
9.3750000000000036
 20
551.67542081422152
 30
0.0
 11
290.0
 21
551.67542081422152
 31
0.0
  0
SOLID
  5
32A
  8
0
 62
     0
 10
9.3750000000000036
 20
553.34208748088815
 30
0.0
 11
9.3750000000000036
 21
550.0087541475549
 31
0.0
 12
-0.6249999999999968
 22
551.67542081422152
 32
0.0
 13
-0.6249999999999968
 23
551.67542081422152
 33
0.0
  0
SOLID
  5
32B
  8
0
 62
     0
 10
290.0
 20
553.34208748088815
 30
0.0
 11
290.0
 21
550.0087541475549
 31
0.0
 12
300.0
 22
551.67542081422152
 32
0.0
 13
300.0
 23
551.67542081422152
 33
0.0
  0
INSERT
  5
32C
  8
0
  2
*U10
 10
0.0
 20
0.0
 30
0.0
  0
POINT
  5
32D
  8
DEFPOINTS
 62
     0
 10
-0.625
 20
500.0
 30
0.0
  0
POINT
  5
32E
  8
DEFPOINTS
 62
     0
 10
300.0
 20
500.0
 30
0.0
  0
POINT
  5
32F
  8
DEFPOINTS
 62
     0
 10
300.0
 20
551.67542081422152
 30
0.0
  0
ENDBLK
  5
326
  8
0
  0
BLOCK
  8
0
  2
*U10
 70
     1
 10
0.0
 20
0.0
 30
0.0
  3
*U10
  1

  0
TEXT
  5
3F9
  8
0
 62
     0
 10
121.3541666666666
 20
554.17542081422152
 30
0.0
 40
10.0
  1
300.625
  0
ENDBLK
  5
3FB
  8
0
  0
BLOCK
  8
0
  2
*D11
 70
     1
 10
0.0
 20
0.0
 30
0.0
  3
*D11
  1

  0
LINE
  5
367
  8
0
 62
     0
 10
-0.625
 20
500.625
 30
0.0
 11
-0.6249999999999968
 21
552.92542081422152
 31
0.0
  0
LINE
  5
368
  8
0
 62
     0
 10
300.0
 20
500.625
 30
0.0
 11
300.0
 21
552.92542081422152
 31
0.0
  0
LINE
  5
369
  8
0
 62
     0
 10
1.8750000000000031
 20
551.67542081422152
 30
0.0
 11
297.5
 21
551.67542081422152
 31
0.0
  0
SOLID
  5
36A
  8
0
 62
     0
 10
1.8750000000000031
 20
552.09208748088815
 30
0.0
 11
1.8750000000000031
 21
551.25875414755467
 31
0.0
 12
-0.6249999999999968
 22
551.67542081422152
 32
0.0
 13
-0.6249999999999968
 23
551.67542081422152
 33
0.0
  0
SOLID
  5
36B
  8
0
 62
     0
 10
297.5
 20
552.09208748088815
 30
0.0
 11
297.5
 21
551.25875414755467
 31
0.0
 12
300.0
 22
551.67542081422152
 32
0.0
 13
300.0
 23
551.67542081422152
 33
0.0
  0
INSERT
  5
36C
  8
0
  2
*U12
 10
0.0
 20
0.0
 30
0.0
  0
POINT
  5
36D
  8
DEFPOINTS
 62
     0
 10
-0.625
 20
500.0
 30
0.0
  0
POINT
  5
36E
  8
DEFPOINTS
 62
     0
 10
300.0
 20
500.0
 30
0.0
  0
POINT
  5
36F
  8
DEFPOINTS
 62
     0
 10
300.0
 20
551.67542081422152
 30
0.0
  0
ENDBLK
  5
346
  8
0
  0
BLOCK
  8
0
  2
*U12
 70
     1
 10
0.0
 20
0.0
 30
0.0
  3
*U12
  1

  0
TEXT
  5
401
  8
0
 62
     0
 10
78.854166666666671
 20
552.30042081422152
 30
0.0
 40
25.0
  1
300.625
  0
ENDBLK
  5
403
  8
0
  0
BLOCK
  8
0
  2
*D13
 70
     1
 10
0.0
 20
0.0
 30
0.0
  3
*D13
  1

  0
LINE
  5
370
  8
0
 62
     0
 10
-0.625
 20
500.15625
 30
0.0
 11
-0.6249999999999968
 21
551.98792081422141
 31
0.0
  0
LINE
  5
371
  8
0
 62
     0
 10
300.0
 20
500.15625
 30
0.0
 11
300.0
 21
551.98792081422141
 31
0.0
  0
LINE
  5
372
  8
0
 62
     0
 10
0.0000000000000032
 20
551.67542081422152
 30
0.0
 11
299.375
 21
551.67542081422152
 31
0.0
  0
SOLID
  5
373
  8
0
 62
     0
 10
0.0000000000000032
 20
551.77958748088815
 30
0.0
 11
0.0000000000000032
 21
551.5712541475549
 31
0.0
 12
-0.6249999999999968
 22
551.67542081422152
 32
0.0
 13
-0.6249999999999968
 23
551.67542081422152
 33
0.0
  0
SOLID
  5
374
  8
0
 62
     0
 10
299.375
 20
551.77958748088815
 30
0.0
 11
299.375
 21
551.5712541475549
 31
0.0
 12
300.0
 22
551.67542081422152
 32
0.0
 13
300.0
 23
551.67542081422152
 33
0.0
  0
INSERT
  5
375
  8
0
  2
*U14
 10
0.0
 20
0.0
 30
0.0
  0
POINT
  5
376
  8
DEFPOINTS
 62
     0
 10
-0.625
 20
500.0
 30
0.0
  0
POINT
  5
377
  8
DEFPOINTS
 62
     0
 10
300.0
 20
500.0
 30
0.0
  0
POINT
  5
378
  8
DEFPOINTS
 62
     0
 10
300.0
 20
551.67542081422152
 30
0.0
  0
ENDBLK
  5
35C
  8
0
  0
BLOCK
  8
0
  2
*U14
 70
     1
 10
0.0
 20
0.0
 30
0.0
  3
*U14
  1

  0
TEXT
  5
405
  8
0
 62
     0
 10
131.9791666666666
 20
551.83167081422152
 30
0.0
 40
6.25
  1
300.625
  0
ENDBLK
  5
407
  8
0
  0
BLOCK
  8
0
  2
*D15
 70
     1
 10
0.0
 20
0.0
 30
0.0
  3
*D15
  1

  0
LINE
  5
408
  8
0
 62
     0
 10
150.0
 20
-0.625
 30
0.0
 11
150.0
 21
-79.88637632658947
 31
0.0
  0
LINE
  5
409
  8
0
 62
     0
 10
0.0
 20
-0.625
 30
0.0
 11
-0.0000000000000049
 21
-79.88637632658947
 31
0.0
  0
LINE
  5
40A
  8
0
 62
     0
 10
147.5
 20
-78.63637632658947
 30
0.0
 11
2.4999999999999951
 21
-78.63637632658947
 31
0.0
  0
SOLID
  5
40B
  8
0
 62
     0
 10
147.5
 20
-78.219709659922799
 30
0.0
 11
147.5
 21
-79.053042993256142
 31
0.0
 12
150.0
 22
-78.63637632658947
 32
0.0
 13
150.0
 23
-78.63637632658947
 33
0.0
  0
SOLID
  5
40C
  8
0
 62
     0
 10
2.4999999999999951
 20
-78.219709659922799
 30
0.0
 11
2.4999999999999951
 21
-79.053042993256142
 31
0.0
 12
-0.0000000000000048
 22
-78.63637632658947
 32
0.0
 13
-0.0000000000000048
 23
-78.63637632658947
 33
0.0
  0
TEXT
  5
41E
  8
0
 62
     0
 10
25.0
 20
-109.761
 30
0.0
 40
25.0
  1
150
  0
POINT
  5
40E
  8
DEFPOINTS
 62
     0
 10
150.0
 20
0.0
 30
0.0
  0
POINT
  5
40F
  8
DEFPOINTS
 62
     0
 10
0.0
 20
0.0
 30
0.0
  0
POINT
  5
410
  8
DEFPOINTS
 62
     0
 10
-0.0000000000000048
 20
-78.63637632658947
 30
0.0
  0
ENDBLK
  5
385
  8
0
  0
BLOCK
  8
0
  2
*D16
 70
     1
 10
0.0
 20
0.0
 30
0.0
  3
*D16
  1

  0
LINE
  5
411
  8
0
 62
     0
 10
300.625
 20
-0.0000000000000002
 30
0.0
 11
398.0003553928691
 21
-0.0000000000000278
 31
0.0
  0
LINE
  5
412
  8
0
 62
     0
 10
300.625
 20
200.0
 30
0.0
 11
398.00035539286921
 21
200.0
 31
0.0
  0
LINE
  5
413
  8
0
 62
     0
 10
396.7503553928691
 20
2.4999999999999711
 30
0.0
 11
396.75035539286921
 21
197.5
 31
0.0
  0
SOLID
  5
414
  8
0
 62
     0
 10
396.33368872620241
 20
2.4999999999999711
 30
0.0
 11
397.16702205953573
 21
2.4999999999999711
 31
0.0
 12
396.7503553928691
 22
-0.0000000000000274
 32
0.0
 13
396.7503553928691
 23
-0.0000000000000274
 33
0.0
  0
SOLID
  5
415
  8
0
 62
     0
 10
396.33368872620252
 20
197.5
 30
0.0
 11
397.16702205953573
 21
197.5
 31
0.0
 12
396.75035539286921
 22
200.0
 32
0.0
 13
396.75035539286921
 23
200.0
 33
0.0
  0
TEXT
  5
41F
  8
0
 62
     0
 10
333.625
 20
55.75
 30
0.0
 40
25.0
  1
200
  0
POINT
  5
417
  8
DEFPOINTS
 62
     0
 10
300.0
 20
0.0
 30
0.0
  0
POINT
  5
418
  8
DEFPOINTS
 62
     0
 10
300.0
 20
200.0
 30
0.0
  0
POINT
  5
419
  8
DEFPOINTS
 62
     0
 10
396.75035539286921
 20
200.0
 30
0.0
  0
ENDBLK
  5
39B
  8
0
  0
BLOCK
  8
0
  2
*U17
 70
     1
 10
0.0
 20
0.0
 30
0.0
  3
*U17
  1

  0
DIMENSION
  5
3BD
  8
0___1
  2
*D11
 10
300.0
 20
551.67542081422152
 30
0.0
 11
149.6875
 21
564.80042081422152
 31
0.0
  3
ANNOTATIVE
 13
-0.625
 23
500.0
 33
0.0
 14
300.0
 24
500.0
 34
0.0
1001
ACADANNOTATIVE
1000
AnnotativeData
1002
{
1070
     1
1070
     0
1002
}
1001
ACAD
1000
DSTYLE
1002
{
1070
    40
1040
1.0
1070
   279
1070
     2
1070
   289
1070
     3
1070
   174
1070
     0
1070
   175
1070
     0
1070
   172
1070
     1
1070
   140
1040
25.0
1002
}
  0
DIMENSION
  5
3C7
  8
0___0_25
  2
*D13
 10
300.0
 20
551.67542081422152
 30
0.0
 11
149.6875
 21
554.95667081422152
 31
0.0
  3
ANNOTATIVE
 13
-0.625
 23
500.0
 33
0.0
 14
300.0
 24
500.0
 34
0.0
1001
ACADANNOTATIVE
1000
AnnotativeData
1002
{
1070
     1
1070
     0
1002
}
1001
ACAD
1000
DSTYLE
1002
{
1070
    40
1040
0.25
1070
   279
1070
     2
1070
   289
1070
     3
1070
   174
1070
     0
1070
   175
1070
     0
1070
   172
1070
     1
1070
   140
1040
25.0
1002
}
  0
ENDBLK
  5
3BC
  8
0
  0
BLOCK
  8
0
  2
*D18
 70
     1
 10
0.0
 20
0.0
 30
0.0
  3
*D18
  1

  0
LINE
  5
5BC
  8
0
 62
     0
 10
183.9948494518901
 20
384.48923669077271
 30
0.0
 11
89.186993991063417
 21
290.08543047831091
 31
0.0
  0
TEXT
  8
0
  40
25
  5
5D0
  62
0
  72
0
  71
0
 10
94.7654
 20
319.699
 30
0.000000
  1
R300
  0
SOLID
  5
5BE
  8
0
 62
     0
 10
88.892995994534459
 20
290.38068678924782
 30
0.0
 11
89.480991987592404
 21
289.790174167374
 31
0.0
 12
87.415456125442134
 22
288.32144249913699
 32
0.0
 13
87.415456125442134
 23
288.32144249913699
 33
0.0
  0
POINT
  5
5BF
  8
DEFPOINTS
 62
     0
 10
87.415456125442134
 20
288.32144249913699
 30
0.0
  0
POINT
  5
5C0
  8
DEFPOINTS
 62
     0
 10
299.99999999999687
 20
499.99999999999977
 30
0.0
  0
ENDBLK
  5
4CC
  8
0
  0
BLOCK
  8
0
  2
*D19
 70
     1
 10
0.0
 20
0.0
 30
0.0
  3
*D19
  1

  0
LINE
  5
5C1
  8
0
 62
     0
 10
247.25494202155949
 20
142.74938748994029
 30
0.0
 11
132.06964192048611
 21
76.248670040824763
 31
0.0
  0
TEXT
  8
0
  40
25
  5
5D1
  62
0
  72
0
  71
0
 10
155.871
 20
89.7622
 30
0.000000
  1
R150
  0
LINE
  5
5C3
  8
0
 62
     0
 10
0.0
 20
0.0
 30
0.0
 11
129.90456582342901
 21
74.998691843434202
 31
0.0
  0
SOLID
  5
5C4
  8
0
 62
     0
 10
131.86131222092101
 20
76.60951605700096
 30
0.0
 11
132.2779716200512
 21
75.88782402464858
 31
0.0
 12
129.90456582342901
 22
74.998691843434202
 32
0.0
 13
129.90456582342901
 23
74.998691843434202
 33
0.0
  0
POINT
  5
5C5
  8
DEFPOINTS
 62
     0
 10
129.90456582342901
 20
74.998691843434202
 30
0.0
  0
POINT
  5
5C6
  8
DEFPOINTS
 62
     0
 10
0.0
 20
0.0
 30
0.0
  0
ENDBLK
  5
4D5
  8
0
  0
BLOCK
  8
0
  2
*D20
 70
     1
 10
0.0
 20
0.0
 30
0.0
  3
*D20
  1

  0
LINE
  5
5C7
  8
0
 62
     0
 10
0.0
 20
500.625
 30
0.0
 11
0.000000000000003
 21
548.98041331919046
 31
0.0
  0
LINE
  5
5C8
  8
0
 62
     0
 10
300.0
 20
500.625
 30
0.0
 11
300.0
 21
548.98041331919046
 31
0.0
  0
LINE
  5
5C9
  8
0
 62
     0
 10
2.5000000000000031
 20
547.73041331919046
 30
0.0
 11
297.5
 21
547.73041331919046
 31
0.0
  0
SOLID
  5
5CA
  8
0
 62
     0
 10
2.5000000000000031
 20
548.1470799858572
 30
0.0
 11
2.5000000000000031
 21
547.31374665252395
 31
0.0
 12
0.0000000000000029
 22
547.73041331919046
 32
0.0
 13
0.0000000000000029
 23
547.73041331919046
 33
0.0
  0
SOLID
  5
5CB
  8
0
 62
     0
 10
297.5
 20
548.1470799858572
 30
0.0
 11
297.5
 21
547.31374665252395
 31
0.0
 12
300.0
 22
547.73041331919046
 32
0.0
 13
300.0
 23
547.73041331919046
 33
0.0
  0
TEXT
  8
0
  40
25
  5
5D2
  62
0
  72
0
  71
0
 10
100.000
 20
516.605
 30
0.000000
  1
300
  0
POINT
  5
5CD
  8
DEFPOINTS
 62
     0
 10
0.0
 20
500.0
 30
0.0
  0
POINT
  5
5CE
  8
DEFPOINTS
 62
     0
 10
300.0
 20
500.0
 30
0.0
  0
POINT
  5
5CF
  8
DEFPOINTS
 62
     0
 10
300.0
 20
547.73041331919046
 30
0.0
  0
ENDBLK
  5
537
  8
0
  0
BLOCK
  8
0
  2
*D21
 70
     1
 10
0.0
 20
0.0
 30
0.0
  3
*D21
  1

  0
LINE
  5
599
  8
0
 62
     0
 10
-0.0625
 20
500.0
 30
0.0
 11
-140.98775036392331
 21
500.0
 31
0.0
  0
LINE
  5
59A
  8
0
 62
     0
 10
-0.0625000000000918
 20
0.0
 30
0.0
 11
-140.9877503639234
 21
0.0000000000000399
 31
0.0
  0
LINE
  5
59B
  8
0
 62
     0
 10
-140.8077503639233
 20
499.81999999999999
 30
0.0
 11
-140.8077503639233
 21
262.59000000000009
 31
0.0
  0
LINE
  5
59C
  8
0
 62
     0
 10
-140.80775036392339
 20
0.1800000000000399
 30
0.0
 11
-140.8077503639233
 21
237.41
 31
0.0
  0
SOLID
  5
59D
  8
0
 62
     0
 10
-140.83775036392331
 20
499.81999999999999
 30
0.0
 11
-140.77775036392319
 21
499.81999999999999
 31
0.0
 12
-140.8077503639233
 22
500.0
 32
0.0
 13
-140.8077503639233
 23
500.0
 33
0.0
  0
SOLID
  5
59E
  8
0
 62
     0
 10
-140.83775036392339
 20
0.1800000000000399
 30
0.0
 11
-140.77775036392339
 21
0.1800000000000399
 31
0.0
 12
-140.80775036392339
 22
0.0000000000000399
 32
0.0
 13
-140.80775036392339
 23
0.0000000000000399
 33
0.0
  0
TEXT
  8
0
  40
25
  5
5D3
  62
0
  72
0
  71
0
 10
-190.808
 20
205.750
 30
0.000000
  1
500.0000
  0
POINT
  5
5A0
  8
DEFPOINTS
 62
     0
 10
0.0
 20
500.0
 30
0.0
  0
POINT
  5
5A1
  8
DEFPOINTS
 62
     0
 10
-0.0000000000000918
 20
0.0
 30
0.0
  0
POINT
  5
5A2
  8
DEFPOINTS
 62
     0
 10
-140.80775036392339
 20
0.0000000000000399
 30
0.0
  0
ENDBLK
  5
598
  8
0
  0
BLOCK
  8
0
  2
*D22
 70
     1
 10
0.0
 20
0.0
 30
0.0
  3
*D22
  1

  0
LINE
  5
5A6
  8
0
 62
     0
 10
300.0625
 20
0.0
 30
0.0
 11
396.93035539286922
 21
-0.0000000000000275
 31
0.0
  0
LINE
  5
5A7
  8
0
 62
     0
 10
300.0625
 20
200.0
 30
0.0
 11
396.93035539286922
 21
200.0
 31
0.0
  0
LINE
  5
5A8
  8
0
 62
     0
 10
396.75035539286921
 20
0.1799999999999726
 30
0.0
 11
396.75035539286921
 21
87.409999999999968
 31
0.0
  0
LINE
  5
5A9
  8
0
 62
     0
 10
396.75035539286921
 20
199.81999999999991
 30
0.0
 11
396.75035539286921
 21
112.5899999999999
 31
0.0
  0
SOLID
  5
5AA
  8
0
 62
     0
 10
396.72035539286918
 20
0.1799999999999726
 30
0.0
 11
396.78035539286913
 21
0.1799999999999726
 31
0.0
 12
396.75035539286921
 22
-0.0000000000000274
 32
0.0
 13
396.75035539286921
 23
-0.0000000000000274
 33
0.0
  0
SOLID
  5
5AB
  8
0
 62
     0
 10
396.72035539286918
 20
199.81999999999991
 30
0.0
 11
396.78035539286918
 21
199.81999999999991
 31
0.0
 12
396.75035539286921
 22
200.0
 32
0.0
 13
396.75035539286921
 23
200.0
 33
0.0
  0
TEXT
  8
0
  40
25
  5
5D4
  62
0
  72
0
  71
0
 10
346.750
 20
55.7500
 30
0.000000
  1
200.0000
  0
POINT
  5
5AD
  8
DEFPOINTS
 62
     0
 10
300.0
 20
0.0
 30
0.0
  0
POINT
  5
5AE
  8
DEFPOINTS
 62
     0
 10
300.0
 20
200.0
 30
0.0
  0
POINT
  5
5AF
  8
DEFPOINTS
 62
     0
 10
396.75035539286921
 20
200.0
 30
0.0
  0
ENDBLK
  5
5A5
  8
0
  0
ENDSEC
  0
SECTION
  2
ENTITIES
  0
POLYLINE
  5
1E2
  8
0
 66
     1
 10
0.0
 20
0.0
 30
0.0
 70
     1
  0
VERTEX
  5
591
  8
0
 10
0.0
 20
0.0
 30
0.0
  0
VERTEX
  5
592
  8
0
 10
300.0
 20
0.0
 30
0.0
  0
VERTEX
  5
593
  8
0
 10
300.0
 20
500.0
 30
0.0
  0
VERTEX
  5
594
  8
0
 10
0.0
 20
500.0
 30
0.0
  0
SEQEND
  5
595
  8
0
  0
ARC
  5
2D7
  8
0
 10
0.0
 20
0.0
 30
0.0
 40
150.0
 50
0.0
 51
90.0
  0
ARC
  5
2D8
  8
0
 10
300.0
 20
500.0
 30
0.0
 40
300.0
 50
179.99999999999989
 51
270.0
  0
DIMENSION
  5
2D9
  8
0
  2
*D21
 10
-140.80775036392339
 20
0.0000000000000399
 30
0.0
 11
-140.8077503639233
 21
250.0
 31
0.0
 70
     0
 13
0.0
 23
500.0
 33
0.0
 14
-0.0000000000000918
 24
0.0
 34
0.0
 50
90.0
1001
ACAD
1000
DSTYLE
1002
{
1070
   287
1070
     3
1070
   287
1070
     3
1070
   140
1040
25.0
1070
   274
1070
     2
1070
   279
1070
     0
1070
   284
1070
     0
1070
   285
1070
     0
1070
   286
1070
     0
1002
}
  0
DIMENSION
  5
398
  8
0
  2
*D22
 10
396.75035539286921
 20
200.0
 30
0.0
 11
396.75035539286921
 21
100.0
 31
0.0
 70
     0
 13
300.0
 23
0.0
 33
0.0
 14
300.0
 24
200.0
 34
0.0
 50
90.0
1001
ACAD
1000
DSTYLE
1002
{
1070
   287
1070
     3
1070
   287
1070
     3
1070
   140
1040
25.0
1070
   274
1070
     2
1070
   279
1070
     0
1070
   284
1070
     0
1070
   285
1070
     0
1070
   286
1070
     0
1002
}
  0
LINE
  5
3AE
  8
0
 10
0.0000000000000092
 20
150.0
 30
0.0
 11
300.625
 21
200.0
 31
0.0
  0
DIMENSION
  5
4C9
  8
0
  2
*D18
 10
299.99999999999687
 20
499.99999999999977
 30
0.0
 11
154.0263338917963
 21
354.64844004308151
 31
0.0
 70
   132
 15
87.415456125442134
 25
288.32144249913699
 35
0.0
 40
0.0
1001
ACAD_DSTYLE_DIMRADIAL_EXTENSION
1070
   387
1070
     1
1070
   388
1040
3.1415926535897909
1070
   390
1040
4.7123889803846888
1001
ACAD
1000
DSTYLE
1002
{
1070
   287
1070
     3
1070
   140
1040
25.0
1070
   274
1070
     2
1070
   279
1070
     0
1070
   284
1070
     0
1070
   285
1070
     0
1070
   286
1070
     0
1070
   288
1070
     1
1002
}
  0
DIMENSION
  5
4D2
  8
0
  2
*D19
 10
0.0
 20
0.0
 30
0.0
 11
212.433301460557
 21
122.6455714819086
 31
0.0
 70
   132
 15
129.90456582342901
 25
74.998691843434202
 35
0.0
 40
0.0
1001
ACAD_DSTYLE_DIMRADIAL_EXTENSION
1070
   387
1070
     1
1070
   388
1040
0.0
1070
   390
1040
1.5707963267948959
1001
ACAD
1000
DSTYLE
1002
{
1070
   287
1070
     3
1070
   140
1040
25.0
1070
   274
1070
     2
1070
   279
1070
     0
1070
   284
1070
     0
1070
   285
1070
     0
1070
   286
1070
     0
1070
   288
1070
     1
1002
}
  0
DIMENSION
  5
534
  8
0
  2
*D20
 10
300.0
 20
547.73041331919046
 30
0.0
 11
150.0
 21
560.85541331919057
 31
0.0
 70
     0
 13
0.0
 23
500.0
 33
0.0
 14
300.0
 24
500.0
 34
0.0
1001
ACAD
1000
DSTYLE
1002
{
1070
   287
1070
     3
1070
   140
1040
25.0
1070
   274
1070
     2
1070
   279
1070
     0
1070
   284
1070
     0
1070
   285
1070
     0
1070
   286
1070
     0
1002
}
  0
ENDSEC
  0
EOF
